# xmcd
#
# Track frame offsets: 
#        150
#        16052
#        31586
#        50177
#        70753
#        89783
#        131479
#        151622
#
# Disc length: 2385 seconds
#
# Revision: 0
# Processed by: cddbd v1.5.2PL0 Copyright (c) Steve Scherf et al.
# Submitted via: ExactAudioCopyFreeDBPlugin 1.0
#
DISCID=5c094f08
DTITLE=Reverend Shine Snake Oil Co. - Anti Solipsism pt​.​2 - Totems &
DTITLE=Familiars
DYEAR=1900
DGENRE=Rhythm and Blues
TTITLE0=The Hitch
TTITLE1=Word To The Wise
TTITLE2=Indifference
TTITLE3=Ungrateful
TTITLE4=The City
TTITLE5=In Case We Don't Die
TTITLE6=Möbius
TTITLE7=Hold It Down
EXTD=
EXTT0=
EXTT1=
EXTT2=
EXTT3=
EXTT4=
EXTT5=
EXTT6=
EXTT7=
PLAYORDER=
